<?xml version="1.0" encoding="utf-8"?>
<!-- Uploaded to: SVG Repo, www.svgrepo.com, Generator: SVG Repo Mixer Tools -->
<svg width="800px" height="800px" viewBox="0 0 128 128" xmlns="http://www.w3.org/2000/svg" xmlns:xlink="http://www.w3.org/1999/xlink" aria-hidden="true" role="img" class="iconify iconify--noto" preserveAspectRatio="xMidYMid meet">
<radialGradient id="IconifyId17ecdb2904d178eab9033" cx="56.533" cy="33.205" r="92.59" gradientUnits="userSpaceOnUse">
<stop stop-color="#FFCA28" offset=".353">
</stop>
<stop stop-color="#FFB300" offset=".872">
</stop>
</radialGradient>
<path d="M53.84 122.41c-11.51 0-20.35-2.95-26.27-8.76c-5.64-5.54-6.9-12.09-7.18-14.66c-.92-8.4-2.98-28.82-3-29.02L13.53 37.9c-.4-2.55.07-4.74 1.3-6.22c1-1.2 2.49-1.87 4.31-1.91h.16c1.79 0 4.33.69 5.6 6.63l4.04 18.8c.33 1.52 1.7 2.63 3.25 2.63c.1 0 .19 0 .29-.01c1.8-.16 3.14-1.7 3.04-3.5c-.39-6.82-1.65-29.39-1.65-33.39c0-6.69 2.81-7.7 5.25-7.83c.12-.01.24-.01.36-.01c5.11 0 5.81 6.34 5.9 7.62c.3 4.27 2.82 33.89 2.84 34.19c.1 1.75 1.53 3.16 3.25 3.16h.17c1.78-.09 3.14-1.58 3.14-3.39l1-41.51c0-3.76 2.03-7.54 5.9-7.54c.32 0 .66.03 1 .08c3.58.55 4.86 4.34 4.86 7.7l1 41.89c0 1.28 1.01 2.34 2.29 2.38c1.29 0 2.29-.93 2.42-2.17l4.38-35.73c.34-3.47 2.3-6.97 5.91-7.05h.16c1.72 0 3.13.6 4.2 1.77c1.38 1.52 2.02 3.88 1.77 6.48c-.03.42-3.22 40.05-4.2 50.76c-.09.95.21 1.85.85 2.54c.64.7 1.54 1.1 2.48 1.1c.79 0 1.54-.28 2.15-.81c1.69-1.47 3.58-3.88 5.4-6.21c2.19-2.8 4.92-6.29 6.43-6.73c1.79-.52 3.57-.78 5.32-.78c2.99 0 5.48.79 6.67 2.11c.77.85 1.19 3.55.58 5.76c-.21.75-.72 2.07-1.81 2.42c-6.67 2.09-16.61 16.06-20.31 23.3c-.65 1.28-1.21 2.79-1.86 4.53c-3.49 9.31-8.75 23.45-37.53 23.45z" fill="url(#IconifyId17ecdb2904d178eab9033)">
</path>
<path d="M61.67 7.09c.25 0 .5.02.77.06c3.42.53 3.59 5.27 3.59 6.22v.07l1 41.83c.02 2.11 1.66 3.8 3.77 3.86h.11c1.97 0 3.6-1.49 3.82-3.48l4.38-35.74c0-.02.01-.05.01-.07c.27-2.77 1.75-5.6 4.45-5.66h.13c1.28 0 2.32.43 3.09 1.28c1.09 1.21 1.6 3.15 1.39 5.33v.05c-.03.4-3.22 40.01-4.19 50.72c-.12 1.37.31 2.68 1.23 3.69s2.23 1.59 3.59 1.59c1.14 0 2.26-.42 3.13-1.18c1.8-1.56 3.65-3.92 5.59-6.42c1.69-2.17 4.53-5.8 5.67-6.22c1.63-.47 3.32-.72 4.9-.72c3.03 0 4.88.87 5.54 1.6c.36.47.81 2.7.2 4.59c-.23.72-.54 1.1-.75 1.17c-7.41 2.32-17.62 17.05-21.19 24.05c-.69 1.36-1.3 2.98-1.93 4.69c-1.68 4.51-3.77 10.13-8.78 14.57c-6.02 5.35-14.96 7.94-27.33 7.94c-11.11 0-19.59-2.8-25.22-8.33c-5.29-5.2-6.48-11.35-6.74-13.75c-.92-8.39-2.98-28.81-3-29.01c0-.02 0-.04-.01-.06l-3.86-32.05c0-.04-.01-.07-.01-.11c-.32-2.03.04-3.85.98-4.98c.73-.88 1.81-1.34 3.2-1.37h.12c.89 0 2.97 0 4.14 5.44l4.04 18.8c.47 2.21 2.46 3.81 4.72 3.81c.14 0 .28-.01.42-.02a4.801 4.801 0 0 0 4.4-5.08c-.79-14.01-1.64-30.12-1.64-33.31c0-6.13 2.4-6.26 3.83-6.34c.09-.01.19-.01.28-.01c3.78 0 4.33 5.18 4.4 6.22c.3 4.25 2.7 32.54 2.84 34.18c.17 2.56 2.25 4.56 4.75 4.56c.08 0 .16 0 .28-.01c2.52-.13 4.5-2.26 4.52-4.85l1-41.52v-.07c0-1.79.49-3.39 1.37-4.5c.76-.96 1.78-1.46 3-1.46m0-3c-4.49 0-7.4 4.03-7.4 9l-1 41.54c0 1.01-.74 1.84-1.68 1.89h-.12c-.93 0-1.7-.78-1.76-1.78c0 0-2.54-29.86-2.84-34.16c-.29-4.19-2.4-9.01-7.39-9.01c-.14 0-.29 0-.44.01c-5.31.29-6.67 4.52-6.67 9.33c0 4.11 1.28 26.91 1.65 33.48c.06.99-.68 1.84-1.67 1.92c-.05 0-.11.01-.16.01c-.85 0-1.6-.6-1.79-1.44l-4.04-18.8c-.98-4.59-3.01-7.81-7.07-7.81h-.2c-5.23.13-7.9 4.48-7.06 9.81l3.86 32.05s2.07 20.54 3 29.04s7.74 24.75 34.94 24.75c35.1 0 36.64-20.86 40.71-28.84c3.79-7.43 13.56-20.71 19.42-22.55c3.79-1.19 3.81-8.48 1.89-10.61c-1.49-1.65-4.37-2.61-7.78-2.61c-1.8 0-3.76.27-5.73.84c-3.35.97-8.52 9.9-12.39 13.25c-.36.31-.77.45-1.17.45c-1 0-1.94-.84-1.83-2c.99-10.85 4.2-50.75 4.2-50.75c.52-5.31-2.29-9.9-7.46-9.9h-.2c-4.2.09-6.92 3.88-7.37 8.37l-4.38 35.77c-.05.47-.41.82-.84.82h-.04c-.46-.01-.83-.42-.83-.91l-1-41.86c0-4.51-1.98-8.54-6.13-9.18c-.42-.09-.83-.12-1.23-.12z" fill="#EDA600">
</path>
<defs>
<path id="IconifyId17ecdb2904d178eab9034" d="M115.87 61.91c-2.27-2.53-7.81-3.42-13.52-1.77c-4.43 1.28-12.04 16.46-15.61 14.3c.09-2.35 5.21-53.33 5.21-53.33c.53-5.38-3.47-10.15-8.7-9.94c-4.2.17-7.55 3.84-7.99 8.33l-3.52 35.74c-.04.49-.41.76-.86.76h-.02c-.45 0-.86-.28-.86-.78V13.37c0-4.51-3.1-8.54-7.26-9.18c-5.18-.81-9.74 3.49-9.74 8.9v41.54c0 1.01-.6 1.84-1.54 1.89h.04c-.97.05-1.75-.74-1.81-1.78L47.8 20.56c-.25-4.5-3.44-8.34-7.62-8.71c-5.21-.47-9.4 4.1-9.1 9.5l1.94 34.83c.04.75-.56 1.36-1.26 1.28h-.02c-.5-.06-.9-.47-.98-1.01l-3.19-20.4c-.7-4.45-4.25-7.89-8.45-7.79c-5.23.13-8.95 5.16-8.11 10.49l4.91 31.36s2.07 20.54 3 29.04s7.74 24.75 34.94 24.75c35.1 0 36.64-20.86 40.71-28.84c3.79-7.43 13.56-20.71 19.42-22.55c3.77-1.17 3.8-8.47 1.88-10.6z">
</path>
</defs>
<clipPath id="IconifyId17ecdb2904d178eab9035">
<use xlink:href="#IconifyId17ecdb2904d178eab9034">
</use>
</clipPath>
<g clip-path="url(#IconifyId17ecdb2904d178eab9035)">
<path d="M90.13 69.44C76.2 71.43 67.51 84.02 63.57 97.49c-.54 1.86 1.29 2.44 1.83.58c3.68-12.55 14.35-21.64 27.26-23.48c1.9-.27 1.09-3.16-.8-2.89l-1.73-2.26z" fill="#EDA600">
</path>
</g>
</svg>