<?xml version="1.0" encoding="iso-8859-1"?>
<!-- Uploaded to: SVG Repo, www.svgrepo.com, Generator: SVG Repo Mixer Tools -->
<svg height="80px" width="80px" version="1.1" id="Capa_1" xmlns="http://www.w3.org/2000/svg" xmlns:xlink="http://www.w3.org/1999/xlink" 
	 viewBox="0 0 138.181 138.181" xml:space="preserve">
<g>
	<g>
		<path style="fill:#010002;" d="M59.255,137.743c0,0,3.502-3.064-2.626-8.316c0,0-16.052-10.449-25.719-22.115
			c-2.5-4-9.9-11.911-10.567-17.911c-0.667-6-6.531-18.709-6.531-18.709s-1.721-8.454,6.822-8.657
			c8.078,2.896,16.652,23.187,16.652,23.187s6.212,4.62,7.4-0.8c0,0,1.889-7.254-0.654-19.498
			c-2.735-13.176-6.625-23.703-9.377-41.389c-0.5-11.834,10.928-7.704,11.901-3.168c1.2,0.192,8.576,44.323,16.243,44.323
			c6.037,0-2.366-55.306,2.215-57.874C67.52,1.406,75.161,4.654,76.012,8.5c0.963,4.349,2.356,55.713,6.606,55.713
			c5.75,0,9.74-48.049,12.449-49.443c4.977-2.561,9.188-1.654,9.774,5.15c0.141,1.629-6.634,47.42-3.634,50.42
			s9.698-25.104,17.592-34.716c1.581-1.925,7.319,0.22,6.646,3.94c-1.649,9.112-12.528,43.906-12.733,46.095
			c0,0-0.04,20.261-7.669,44.643l-2.334,7.879L59.255,137.743z"/>
		<path style="fill:#010002;" d="M19.327,57.258c-6.293,0-11.395,5.101-11.395,11.394s5.102,11.395,11.395,11.395
			s11.395-5.102,11.395-11.395S25.62,57.258,19.327,57.258z M19.327,77.688c-4.99,0-9.035-4.046-9.035-9.035
			c0-4.99,4.045-9.035,9.035-9.035c4.989,0,9.035,4.045,9.035,9.035C28.362,73.642,24.316,77.688,19.327,77.688z"/>
		<path style="fill:#010002;" d="M40.51,11.395c-6.293,0-11.395,5.102-11.395,11.395s5.102,11.395,11.395,11.395
			s11.395-5.102,11.395-11.395S46.803,11.395,40.51,11.395z M40.51,31.824c-4.99,0-9.035-4.046-9.035-9.035
			c0-4.99,4.045-9.035,9.035-9.035c4.989,0,9.035,4.045,9.035,9.035C49.545,27.778,45.499,31.824,40.51,31.824z"/>
		<path style="fill:#010002;" d="M69.586,0c-6.293,0-11.395,5.102-11.395,11.395S63.293,22.79,69.586,22.79
			s11.395-5.102,11.395-11.395S75.879,0,69.586,0z M69.586,20.43c-4.99,0-9.035-4.046-9.035-9.035c0-4.99,4.045-9.035,9.035-9.035
			c4.989,0,9.035,4.045,9.035,9.035C78.621,16.384,74.575,20.43,69.586,20.43z"/>
		<path style="fill:#010002;" d="M99.065,9.71c-6.017,0-10.895,4.878-10.895,10.895S93.048,31.5,99.065,31.5
			s10.895-4.878,10.895-10.895S105.082,9.71,99.065,9.71z M99.065,29.243c-4.771,0-8.639-3.868-8.639-8.639s3.867-8.639,8.639-8.639
			c4.771,0,8.639,3.867,8.639,8.639C107.704,25.375,103.836,29.243,99.065,29.243z"/>
		<path style="fill:#010002;" d="M120.854,30.71c-5.188,0-9.395,4.206-9.395,9.395s4.207,9.395,9.395,9.395s9.395-4.206,9.395-9.395
			S126.042,30.71,120.854,30.71z M120.854,47.554c-4.115,0-7.449-3.335-7.449-7.449s3.334-7.449,7.449-7.449
			c4.114,0,7.449,3.335,7.449,7.449S124.968,47.554,120.854,47.554z"/>
	</g>
</g>
</svg>