<?xml version="1.0" encoding="iso-8859-1"?>
<!-- Uploaded to: SVG Repo, www.svgrepo.com, Generator: SVG Repo Mixer Tools -->
<svg fill="#000000" height="800px" width="800px" version="1.1" id="Layer_1" xmlns="http://www.w3.org/2000/svg" xmlns:xlink="http://www.w3.org/1999/xlink" 
	 viewBox="0 0 512 512" xml:space="preserve">
<g transform="translate(1 1)">
	<g>
		<path d="M452.211,149.187c-5.973-3.413-12.8-5.12-19.627-5.12c-13.653,0-24.747,7.68-34.133,22.187
			c-2.56,5.12-11.947,19.627-21.333,35.84l34.133-145.92c2.56-13.653-2.56-22.187-6.827-27.307
			c-6.827-8.533-18.773-13.653-31.573-12.8c-18.773,0-32.427,12.8-38.4,36.693l-29.867,117.76V37.4c0-21.333-17.067-38.4-38.4-38.4
			c-21.333,0-38.4,17.067-38.4,38.4v134.827L197.918,68.973c-5.12-13.653-11.947-34.987-38.4-35.84
			c-13.653,0-26.453,7.68-33.28,18.773c-4.267,8.533-5.973,17.92-3.413,28.16l37.547,152.747c-23.04-26.453-51.2-42.667-61.44-48.64
			c-17.067-9.387-43.52-2.56-54.613,13.653c-3.413,5.12-12.8,24.747,13.653,45.227c24.747,19.627,54.613,69.973,64,100.693
			c0,0.853,0,0.853,0,0.853c14.507,62.293,50.347,93.013,63.147,102.4v29.867c0,20.48,13.653,34.133,34.133,34.133h149.333
			c18.773,0,29.867-12.8,29.867-34.133v-31.573c23.04-31.573,25.6-37.547,25.6-90.453c0-17.067,5.973-34.987,11.093-52.907
			l33.28-108.373C473.544,176.493,466.718,157.72,452.211,149.187z M452.211,190.147l-30.72,100.693l-2.56,7.68
			c-5.973,18.773-11.947,37.547-11.947,58.027c0,47.905-0.774,51.003-20.696,77.653h-13.437c-5.12,0-8.533,3.413-8.533,8.533
			s3.413,8.533,8.533,8.533h8.533v26.453c0,17.067-8.533,17.067-12.8,17.067H219.251c-4.267,0-17.067-1.707-17.067-17.067v-26.453
			h17.067c5.12,0,8.533-3.413,8.533-8.533s-3.413-8.533-8.533-8.533h-23.41c-9.025-7.034-45.011-36.063-57.657-95.573
			c0-0.853-0.853-1.707-0.853-2.56c-10.24-30.72-39.253-83.627-67.413-106.667c-7.68-5.973-15.36-14.507-10.24-22.187
			c5.12-9.387,22.187-13.653,31.573-8.533c14.507,7.68,62.293,37.547,81.92,84.48c5.12,11.947,11.093,26.453,29.013,38.4
			c0.853,0.853,2.56,1.707,4.267,1.707c2.56,0,5.12-1.707,7.68-4.267c2.56-4.267,1.707-9.387-2.56-11.947
			c-13.653-8.533-17.92-18.773-22.187-29.867c-0.142-0.426-0.315-0.819-0.502-1.197L139.891,75.8
			c-0.853-5.973-0.853-11.093,1.707-15.36c3.413-5.973,10.24-10.24,17.92-10.24c11.947,0,16.213,7.68,21.333,23.893l46.933,160.427
			c0.128,0.638,0.339,1.232,0.608,1.788c0.102,1.822-0.096,3.162-0.608,4.186c-3.413,1.707-5.973,5.12-5.12,9.387
			c0.853,4.267,4.267,6.827,8.533,6.827c0.853,0,0.853,0,1.707,0c3.471-0.578,6.253-2.336,8.318-4.969
			c1.964,1.018,4.049,1.555,6.188,1.555c0.853,0,1.707,0,3.413,0c5.12-0.853,7.68-5.973,6.827-10.24
			c-0.853-4.267-4.267-6.827-8.533-6.827c-0.853-1.707-2.56-4.267-3.413-8.533c-0.154-0.924-0.451-1.762-0.853-2.515V37.4
			c0-11.947,9.387-21.333,21.333-21.333s21.333,9.387,21.333,21.333v199.68c0,0.132,0.013,0.261,0.019,0.391
			c-0.006,0.154-0.019,0.305-0.019,0.462c0,4.267-0.853,7.68-1.707,8.533c-4.267,0.853-6.827,4.267-6.827,8.533
			c0,5.12,3.413,8.533,8.533,8.533c3.217,0,6.096-1.096,8.533-3.047c2.437,1.951,5.317,3.047,8.533,3.047
			c5.12,0,8.533-3.413,8.533-8.533c0-4.267-3.413-7.68-6.827-8.533c-0.747-0.747-1.494-3.454-1.668-6.979l46.042-183.314
			c4.267-15.36,11.947-23.04,22.187-23.04c8.533,0,15.36,2.56,19.627,5.973c2.56,3.413,3.413,7.68,2.56,12.8L348.657,250.08
			c-0.684,0.964-1.174,2.055-1.406,3.213c-0.853,5.12-2.56,7.68-3.413,8.533c-4.267,0-7.68,2.56-8.533,6.827
			c-0.853,5.12,2.56,9.387,6.827,10.24c0.853,0,1.707,0,2.56,0c1.959,0,4.416-0.504,6.609-1.504
			c2.063,2.603,4.737,4.342,7.897,4.917c0.853,0,0.853,0,1.707,0c4.267,0,7.68-3.413,8.533-6.827c0.853-4.267-1.707-7.68-5.12-9.387
			c0-0.828-0.8-4.073-0.065-8.166c5.836-9.918,42.427-72.085,48.706-82.288c7.68-12.8,14.507-14.507,19.627-14.507
			c4.267,0,7.68,0.853,11.093,4.267C451.358,170.52,454.771,180.76,452.211,190.147z"/>
	</g>
</g>
</svg>